<svg xmlns="http://www.w3.org/2000/svg" viewBox="0 0 48 48">
  <!-- Letras multicolor del logo de Google -->
  <path d="M44 20H24v8.4h11.8c-1.1 5.4-5.7 8.4-11.8 8.4-7.2 0-13-5.8-13-13s5.8-13 13-13c3.1 0 5.9 1.1 8.1 2.9l6.4-6.4C34.3 3.7 29.4 2 24 2 11.8 2 2 11.8 2 24s9.8 22 22 22c11 0 21-8 21-22 0-1.3-.2-2.7-.4-4z" fill="#4285F4"/>
  <path d="M44 20H24v8.4h11.8c-1.1 5.4-5.7 8.4-11.8 8.4-7.2 0-13-5.8-13-13s5.8-13 13-13c3.1 0 5.9 1.1 8.1 2.9l6.4-6.4C34.3 3.7 29.4 2 24 2 11.8 2 2 11.8 2 24s9.8 22 22 22c11 0 21-8 21-22 0-1.3-.2-2.7-.4-4z" fill="#34A853"/>
  <path d="M24 36.4c-6.9 0-12.8-4.6-14.9-10.9L2 24c2.1 6.3 8 10.9 14.9 10.9 3.9 0 7.4-1.3 10.1-3.5l-6.4-6.4c-2.2 1.4-4.8 2.3-7.7 2.3z" fill="#FBBC05"/>
  <path d="M24 11.6c4.1 0 7.8 1.4 10.7 4.1l6.4-6.4C36.3 3.7 29.4 2 24 2 11.8 2 2 11.8 2 24h7.1c0-7.2 5.8-13 13-13z" fill="#EA4335"/>
</svg>